<svg xmlns="http://www.w3.org/2000/svg" viewBox="0 0 200 200" id="Work-From-Home-3--Streamline-Milano">
  <desc>
    Work From Home 3 Streamline Illustration: https://streamlinehq.com
  </desc>
  <g fill="#000000">
    <path d="M110.34 124.89a1.9 1.9 0 0 0 1.6 -1.63c0.19 -0.9 -0.23 -1.64 -0.93 -1.65a1.91 1.91 0 0 0 -1.6 1.62c-0.18 0.91 0.23 1.65 0.93 1.66zM75.85 89a0.78 0.78 0 0 0 -0.41 1c0.11 0.46 0.47 0.78 0.81 0.7a0.78 0.78 0 0 0 0.41 -1c-0.11 -0.51 -0.47 -0.82 -0.81 -0.7zm2.27 5.21a0.77 0.77 0 0 0 -0.41 1c0.11 0.46 0.47 0.77 0.8 0.69a0.77 0.77 0 0 0 0.41 -1c-0.1 -0.46 -0.47 -0.77 -0.8 -0.69zm2.88 7.95a0.77 0.77 0 0 0 0.41 -1c-0.11 -0.46 -0.47 -0.77 -0.8 -0.69a0.77 0.77 0 0 0 -0.41 1c0.12 0.46 0.48 0.77 0.8 0.69zm2 7.18a0.77 0.77 0 0 0 0.41 -1c-0.11 -0.46 -0.47 -0.77 -0.81 -0.69a0.77 0.77 0 0 0 -0.41 1c0.11 0.46 0.47 0.77 0.81 0.69zm0.19 6.15c0.11 0.46 0.47 0.77 0.81 0.69a0.77 0.77 0 0 0 0.41 -1c-0.11 -0.47 -0.47 -0.77 -0.81 -0.69s-0.52 0.51 -0.41 1zm-4.92 -51.92c0.07 -0.37 0 -0.7 -0.23 -0.74s-0.44 0.22 -0.51 0.59 0 0.71 0.23 0.75 0.43 -0.23 0.51 -0.6zm5.01 1.13c0.21 0 0.43 -0.23 0.51 -0.6s0 -0.71 -0.23 -0.75 -0.43 0.23 -0.51 0.6 0.03 0.7 0.23 0.75zm-6.23 -3.15a1.34 1.34 0 0 1 1.23 -0.32 0.23 0.23 0 0 0 0.21 -0.41c-0.64 -0.32 -2.14 0.3 -1.76 0.72a0.22 0.22 0 0 0 0.32 0.01zm6.23 0.36c0.23 0 0.72 0.39 0.73 0.59a0.23 0.23 0 1 0 0.45 0c0 -0.49 -0.73 -1 -1.15 -1a0.23 0.23 0 1 0 -0.03 0.41zm-2.28 6a0.8 0.8 0 0 0 0.84 -0.8c0.13 -1 -0.19 -2.91 0 -3.9a0.23 0.23 0 0 0 -0.17 -0.28 0.24 0.24 0 0 0 -0.28 0.17c-0.26 1.1 0.08 2.94 0 3.95 -0.09 0.75 -0.84 0.24 -1.15 0.28a0.24 0.24 0 0 0 -0.21 0.26c0.02 0.22 0.77 0.32 0.97 0.32zm-3.79 0.44a0.23 0.23 0 0 0 -0.21 -0.25 0.24 0.24 0 0 0 -0.25 0.22 2.18 2.18 0 0 0 2.15 2.21c0.1 0 0.5 -0.06 0.5 -0.28a0.23 0.23 0 0 0 -0.26 -0.19 1.72 1.72 0 0 1 -1.93 -1.71zm7.44 57.26a0.23 0.23 0 0 0 0.16 -0.06c0.27 -0.27 11.28 -6.37 11.61 -6.69s-0.11 -0.54 -0.32 -0.33 -11.31 6.4 -11.61 6.69a0.23 0.23 0 0 0 0.16 0.39zm5.28 5.53c5.14 2.26 4.73 2.15 4.84 2.15a0.23 0.23 0 0 0 0.1 -0.43c-2.33 -1.12 -9.71 -4.25 -10.64 -4.84a0.24 0.24 0 0 0 -0.32 0.06 0.23 0.23 0 0 0 0.07 0.32c0.58 0.37 3.19 1.52 5.95 2.74zM76.78 41.82A16.76 16.76 0 1 0 60.2 25.06a16.69 16.69 0 0 0 16.58 16.76zm0 -33.06a16.31 16.31 0 1 1 -16.13 16.3 16.23 16.23 0 0 1 16.13 -16.3z" stroke-width="1"></path>
    <path d="M77 14.17v-3.42a0.23 0.23 0 0 0 -0.23 -0.23 0.23 0.23 0 0 0 -0.23 0.23v3.42a0.23 0.23 0 0 0 0.46 0zM65.8 24.56a0.23 0.23 0 0 0 -0.24 -0.22l-3.42 0.08a0.23 0.23 0 0 0 0 0.45l3.42 -0.08a0.23 0.23 0 0 0 0.24 -0.23zm11.1 -0.07 -4.3 9.89a0.22 0.22 0 0 0 0.41 0.18c4.65 -10.75 4.42 -10 4.36 -10.15l-6.09 -11.48a0.23 0.23 0 0 0 -0.41 0.21zm10.71 0.28 3.42 0.05a0.23 0.23 0 0 0 0 -0.46h-3.42a0.23 0.23 0 1 0 0 0.41zM76.55 36.23v3.42a0.21 0.21 0 0 0 0.22 0.23 0.23 0.23 0 0 0 0.23 -0.22v-3.42a0.23 0.23 0 1 0 -0.45 -0.01zm64.88 17.71h40.19a0.23 0.23 0 0 0 0.23 -0.23V24.07a0.23 0.23 0 0 0 -0.23 -0.23h-40.19a0.22 0.22 0 0 0 -0.22 0.23v29.64a0.22 0.22 0 0 0 0.22 0.23zm40 -13.44a66.74 66.74 0 0 0 -10.81 -4.36c6.19 -5.8 10.74 -3 10.78 -2.93 -0.04 0.27 -0.02 0.66 -0.01 7.29zm-39.77 -16.21h39.73v8.42c-0.95 -0.51 -5.45 -2.38 -11.32 3.27a31.21 31.21 0 0 0 -7.48 -1.44c-4.8 -0.14 -20.69 10.37 -20.93 10.56zm0 21.4c0.29 -0.28 16 -10.7 20.63 -10.7 6.4 0 18.43 5.46 19.05 6 0.09 0.1 0.06 -1.19 0.06 12.47h-39.74zM96 67.55c0.55 0.11 6.43 0.06 7.08 -0.83 0.15 -0.21 3.06 -5 2.76 -5.36a0.23 0.23 0 0 0 -0.28 -0.06 15.16 15.16 0 0 1 -6.75 1.21c-0.32 0 -0.41 0 -0.48 0.14 -0.54 1.22 -0.36 2.86 -2.48 4.45a0.25 0.25 0 0 0 0.15 0.45zM98.65 63a16.48 16.48 0 0 0 6.55 -1 45 45 0 0 1 -2.54 4.52c-0.36 0.5 -4.7 0.74 -6.18 0.69 1.76 -1.6 1.75 -3.21 2.17 -4.21zm8.96 4.86a41.88 41.88 0 0 0 7 -0.35 29.2 29.2 0 0 0 2.51 -5.82 0.29 0.29 0 0 0 -0.16 -0.22c-0.23 -0.09 -5.59 0 -6.57 0.63a0.44 0.44 0 0 0 -0.23 0.37 5.76 5.76 0 0 1 -2.47 4.89c-0.15 0.11 -0.24 0.18 -0.22 0.32a0.22 0.22 0 0 0 0.14 0.18zm3 -5.37c0.39 -0.46 4.93 -0.68 6 -0.62a42.82 42.82 0 0 1 -2.24 5.24c-0.34 0.13 -4.55 0.35 -6.09 0.35a6.23 6.23 0 0 0 2.34 -4.97zm-8.98 10.63c-0.11 0.09 -0.11 0.21 -0.09 0.42a5.3 5.3 0 0 1 -1.88 4.36 0.23 0.23 0 0 0 0 0.32c0.31 0.4 5.7 0.85 7 0 2.49 -1.53 2.51 -5.56 2.51 -5.6a0.21 0.21 0 0 0 -0.07 -0.17c-0.09 -0.08 -0.09 -0.09 -2.68 0.17 -5.17 0.55 -4.69 0.38 -4.79 0.5zm7.1 -0.23c0 0.86 -0.35 3.78 -2.29 5 -1.12 0.68 -5 0.32 -6.2 0.1a5.61 5.61 0 0 0 1.76 -4.47c1 -0.04 5.55 -0.52 6.73 -0.63z" stroke-width="1"></path>
    <path d="M98.18 66.32c0.18 0 0.34 -0.26 1.29 -1.13 0.17 -0.14 0.26 -0.18 0.27 -0.2 0.11 0.23 0 0.88 0.25 1.12 0.42 0.38 1.09 -0.47 1.42 -0.72a0.64 0.64 0 0 0 0.68 0.27 0.23 0.23 0 0 0 -0.12 -0.44c-0.06 0 -0.1 0 -0.21 -0.12 -0.35 -0.37 -0.56 -0.16 -1 0.23a2.43 2.43 0 0 1 -0.5 0.4c-0.08 -0.34 0 -1 -0.36 -1.16S99 65 98 65.92a0.23 0.23 0 0 0 0.18 0.4zm11.92 -0.25a0.23 0.23 0 0 0 0.2 -0.11c0.33 -0.57 1.34 -1.74 1.78 -1.51 0 0.15 -0.32 0.73 0 1s2.1 -0.58 2.11 -0.59a0.23 0.23 0 0 0 -0.25 -0.39 8.63 8.63 0 0 1 -1.55 0.58c0 -0.28 0.3 -0.77 -0.07 -1 -0.92 -0.53 -2.15 1.16 -2.43 1.64a0.22 0.22 0 0 0 0.21 0.38zm-7.48 10.61a7.63 7.63 0 0 1 1.21 -1.2c0 0.36 -0.16 0.94 0.3 1.07s0.8 -0.43 1.1 -0.67c0.24 0.13 0.73 0.42 1.57 -0.32a0.23 0.23 0 0 0 -0.3 -0.34c-0.6 0.52 -0.84 0.38 -1 0.26s-0.45 -0.08 -0.79 0.24a3.06 3.06 0 0 1 -0.43 0.38 1.28 1.28 0 0 1 0 -0.44c0 -0.28 0.06 -0.56 -0.15 -0.68s-0.45 0 -0.65 0.17a8.37 8.37 0 0 0 -1.24 1.28 0.23 0.23 0 0 0 0.38 0.25zm32.58 71.62a13.74 13.74 0 0 1 0.89 -1.43 0.21 0.21 0 0 0 -0.05 -0.31 0.23 0.23 0 0 0 -0.32 0.05 12.26 12.26 0 0 0 -0.92 1.48 0.23 0.23 0 1 0 0.4 0.21zm-4.98 1.75c0.6 0.1 1.2 -0.08 1.75 0a0.23 0.23 0 0 0 0.08 -0.45c-0.62 -0.11 -1.23 0.06 -1.75 0a0.23 0.23 0 0 0 -0.08 0.45z" stroke-width="1"></path>
    <path d="M177.28 128v-1.75c4.77 -14.1 12 -27.2 7.55 -33.61 -5.37 -7.77 -38.23 -6.42 -41.18 3.54 -0.37 1.23 -0.83 2.86 -1.35 4.74H98.73c-1.37 -6.88 -4.34 -14.3 -13.31 -20.49 1.24 -2 -0.29 -3.23 -0.62 -11 -0.21 -4.7 1.61 -10.13 1.18 -11.7 -1.17 -4.31 -6.77 -8.57 -9.5 -8.56 -11.12 0 -18.37 13.54 -21.85 30.08 -0.23 1.12 -0.08 1.71 0.34 2 -2.5 1.85 -6.57 6.38 -9.91 11.87 0 0 -0.93 0.41 -1.51 0.64 -2.6 1 -7 2.82 -8.08 6a4 4 0 0 0 -0.15 1.17C34.4 101 23 102 22 118.47a15.67 15.67 0 0 0 -2.5 4.4c-0.22 0.85 0.21 2.58 1.07 4.82 -14.57 -9.86 -11.91 34.41 -9.92 51.8a4.89 4.89 0 0 0 4.92 4.86h9.65c0.26 0.31 2.62 6.82 3.37 7 0.3 0.06 4.66 0.17 5 -0.31s2 -5.12 2.73 -6.66H167c1.82 4.29 2.76 7.16 3.38 7.29 0.3 0.06 4.66 0.18 5 -0.32s2 -5.41 2.74 -7h7a4.89 4.89 0 0 0 4.92 -4.84c1.69 -20.68 2.4 -65.45 -12.76 -51.51zm-33.2 -31.69c2.86 -9.61 35.27 -10.8 40.38 -3.41s-6.55 25.32 -10.15 42.15c-1.33 6.24 -9.07 6.86 -12.38 7.13l-1 0.09a11.47 11.47 0 0 0 -2.21 -7.57c-3.6 -4.84 -10.68 -6.46 -12.36 -6.48a36.63 36.63 0 0 0 -11.11 1.47c0.56 -2.69 6.11 -24.17 8.83 -33.35zm32.72 63.29H22.53c-0.06 0 -0.16 0.07 -0.16 0v-21.06h3.51c1.65 2.95 12.18 21.11 15.33 20a23.12 23.12 0 0 0 8.4 -5.37 10.54 10.54 0 0 0 1.67 0.24c1.7 0 3.84 -0.67 8.74 -1.43a0.67 0.67 0 0 0 0 0.31c3.81 1.89 32.14 5.57 42.75 1.64 8.14 -3 9.3 -8 10.11 -9.36a21.25 21.25 0 0 0 -1.18 -7.3 11.75 11.75 0 0 0 -3.21 -4.17l-11.16 7.4c1.06 -2.55 5.64 -20.38 6.09 -21.45 4 -2.74 15.18 -8.64 17.4 -9.7 -0.61 2.35 -4.11 14.24 -5.56 19.11 -3.9 2.8 -5.82 4 -5.92 4.1a11.3 11.3 0 0 1 3.12 4.34 22.61 22.61 0 0 1 1.14 6.93c2 -1.42 2.37 -3.08 2.58 -5.49h6.67a22.78 22.78 0 0 0 -2.28 4.12c-2.37 5.54 0.49 9 2.41 10.61 2.73 2.25 6.61 3.29 7.74 2.52a33 33 0 0 0 6.75 1.64c10.25 1.41 20 -1.18 22.8 -11.1a17.91 17.91 0 0 0 0.63 -3.44l1 -0.1c2.73 -0.22 8.4 -0.68 11.26 -4.24h3.61c0.09 21.7 0.13 21.25 0.03 21.25zm0 0.4c-0.17 4.31 -2 7.72 -4.19 7.72H26.57c-2.19 0 -4 -3.34 -4.18 -7.6 -0.01 -0.18 154.37 0.07 154.46 -0.12zM22.32 138.12v-6.37c0.94 2 2.07 4.16 3.29 6.37zm32.93 -27.95c3 1.34 9.6 8.75 11.6 10.87a38.4 38.4 0 0 0 4.57 4.58c1.48 1.13 4.74 -0.5 6.53 -0.24a0.46 0.46 0 0 1 -0.41 0.49 8.91 8.91 0 0 0 -1.47 -0.14 0.22 0.22 0 0 0 -0.2 0.2c-0.1 0.29 2.62 0.17 2.62 0.76 0 0.33 -1.34 0.64 -2.69 0.87a0.23 0.23 0 0 0 0 0.45c1.41 0 2.57 0.16 2.6 0.37 0 0 -0.07 0.3 -2.06 0.66 -0.49 0.09 -0.61 0.11 -0.62 0.31s1.62 0.73 1.63 1.15a3 3 0 0 1 -0.67 -0.07c-0.88 -0.19 -1.94 0.51 -2.58 0.58 -4.16 -0.59 -19.43 -6 -24.61 -8.14 -1.65 -0.94 -7.1 -4.3 -8.71 -8.46 -1.85 -4.83 -0.54 -10.72 2 -16.2 1.55 1.71 15.55 6 16.73 5.6a34.41 34.41 0 0 1 -2.41 7 9.29 9.29 0 0 0 -1.72 -1.09 0.22 0.22 0 0 0 -0.3 0.11 0.22 0.22 0 0 0 0.17 0.34zm23.13 15.08c3.29 -1.69 15.94 -9 16.11 -9.43l1 -0.63c1.59 1 1.76 1.62 1.75 3.62 0 0.8 0 1.5 0.4 1.82 0.24 0.2 0.46 -0.08 0.64 -0.29 0.14 0.7 -0.48 2.28 0 2.91a1.19 1.19 0 0 0 1.31 0 1.43 1.43 0 0 0 0.44 -0.81 3.34 3.34 0 0 0 2.46 -2.71l0.26 0.12c0 0.1 -5.91 20.74 -5.91 20.84 -1.89 -0.95 -17.64 -8.79 -21.56 -9.55a2.8 2.8 0 0 1 1.36 -0.26c0.44 0.1 1 0.16 1.21 -0.08a0.35 0.35 0 0 0 0 -0.37 2.55 2.55 0 0 0 -1.2 -1c1.24 -0.23 2.3 -0.5 2.22 -1.13 -0.05 -0.41 -0.63 -0.61 -1.31 -0.7 0.59 -0.18 1.57 -0.53 1.33 -1.09a1.27 1.27 0 0 0 -0.79 -0.52 0.85 0.85 0 0 0 0.28 -0.74zm13.13 -11a14.91 14.91 0 0 0 0.32 -1.73 8.32 8.32 0 0 0 3.2 2.41l-1.12 0.73a10.62 10.62 0 0 1 -2.4 -1.42zm-7.85 28.08 -20.09 2.81c-0.71 0.11 -0.87 -0.74 -0.15 -0.85l20.1 -2.81c0.68 -0.11 0.83 0.75 0.14 0.84zm-22.11 3.11h0.43A42.24 42.24 0 0 0 60 151.6c-2.11 0.31 -6.48 1.16 -6.58 1.18 0.55 -1.2 -0.68 -4.91 -1.93 -4.91h-0.16l3 -1.59c0.3 0.25 2.45 1.91 4.49 1.34a3.64 3.64 0 0 0 2.73 -2.19zm63.35 1.36c-1.32 -0.38 -2.61 -0.48 -3.92 -0.84 0.22 -0.74 2.61 -1.59 3.78 -2 1 -0.35 1.19 -0.43 1.27 -0.57 1.09 -1.83 4.18 -3.34 5.13 -3.66 0.69 -0.23 3.93 -4.35 5 -4.75 -0.77 1 -1 3.17 -1.3 4.31a0.22 0.22 0 1 0 0.43 0.12c0.34 -1.15 0.55 -3.24 1.23 -4.15 0.25 1 -0.28 3.58 0 4.51 0.34 1.34 4.3 2.44 3.73 5.79a6.35 6.35 0 0 1 -5.19 5.35 1.09 1.09 0 0 0 0 -0.69c-0.09 -0.23 -1.08 0.37 -1.08 0.59s0.44 0.36 0.73 0.36c-2 1.59 -4.78 3.81 -7.2 2.91 -1.88 -0.71 -2.24 -2.75 -2.49 -4.1s-0.15 -1.3 -1.92 -2.21a6 6 0 0 1 -1.93 -1.3c0.56 0.14 1.13 0.25 1.68 0.35 1.91 0.35 1.94 0.44 2 0.44a0.23 0.23 0 0 0 0.05 -0.47zm10.3 4.5a6.72 6.72 0 0 0 4.88 -3.87 5.9 5.9 0 0 1 2.74 -1.45 57.25 57.25 0 0 1 8.53 -1.57s2.58 -0.14 3.28 0.37a0.22 0.22 0 0 0 0.32 0 0.22 0.22 0 0 0 -0.05 -0.32c-0.83 -0.62 -3.57 -0.47 -3.57 -0.47a58.88 58.88 0 0 0 -8.65 1.6 9.08 9.08 0 0 0 -2.32 1 8.09 8.09 0 0 0 0.21 -0.91c0.61 -3.6 -3.47 -4.94 -3.73 -6s0.81 -5.22 -0.65 -5.18c-0.61 0 -1.74 1.2 -3.41 3a13.2 13.2 0 0 1 -1.81 1.81c-1 0.34 -4.18 1.88 -5.35 3.82 -0.57 0.37 -5 1.46 -5.15 2.88s3.16 2.3 3.74 3.07c0.42 0.55 0.15 4.35 3 5.43a7 7 0 0 0 1.81 0.2 2.69 2.69 0 0 0 1.09 0.74c-1.18 0.25 -4.34 -0.52 -6.88 -2.62 -2.22 -1.84 -4.43 -5.08 -2.28 -10.07 5.33 -12.46 18.18 -14.15 25.36 -14 1.63 0 8.5 1.6 12 6.3 2.23 3 2.74 6.73 1.5 11.08 -2.32 8.19 -9.25 10.5 -14.65 11 -7.54 0.69 -14.7 -1.73 -15.63 -2.47 2.09 -0.49 4.03 -2.13 5.67 -3.38zm38.36 -13.3c1.52 -2.21 0.76 -2.58 3.27 -10.31V138zm-31.39 -36.6c-2.77 10 -7.07 26.52 -7.37 28.47a22.74 22.74 0 0 0 -11.6 8.13h-7a11.59 11.59 0 0 0 -2.81 -7.45c0.76 -0.6 2.21 -1.63 2.23 -1.64a0.27 0.27 0 0 0 0.09 -0.12c5.8 -19.61 5.73 -19.71 5.65 -19.83s-0.21 -0.29 -7.65 3.73c-2.89 1.56 -8.1 4.43 -10.56 6.14 -0.06 0 -0.11 0.11 -0.27 0.63l-0.32 -0.15a4.21 4.21 0 0 0 -0.47 -2.3c-2.14 -3.39 -2 -9.16 -3.27 -15.57zM96.9 95.88c0.62 1.78 1.42 5.35 1.42 5.37 1.15 5.22 1 12.26 3.37 15.94a3.55 3.55 0 0 1 0.11 3.21 2.74 2.74 0 0 1 -0.37 0.61 3.49 3.49 0 0 0 0.1 -0.9 0.23 0.23 0 0 0 -0.45 0 6 6 0 0 1 -0.34 1.54 3.08 3.08 0 0 1 -0.51 0.26 12.13 12.13 0 0 0 0.13 -1.72 0.23 0.23 0 0 0 -0.46 0c-0.1 1.77 -0.34 2.5 -0.6 2.72a0.62 0.62 0 0 1 -0.66 0.06c-0.31 -0.28 0.39 -2.43 0 -3a3.36 3.36 0 0 0 0.2 -1.32 0.23 0.23 0 0 0 -0.45 0.06c0.08 0.71 -0.32 1.38 -0.53 1.4 -0.38 -0.7 0.25 -2.9 -0.74 -4.21 -1.29 -1.7 -3.47 -1.58 -5.15 -4.21a58.18 58.18 0 0 0 -0.17 -15.32c0.18 -0.31 4.26 -0.52 5.11 -0.52zm-0.16 -0.44a25.11 25.11 0 0 0 -5.06 0.53 18.58 18.58 0 0 0 -1.47 -4.77 0.23 0.23 0 0 0 -0.41 0.2c3.17 6.42 2.06 19.83 1.28 22.73a69.87 69.87 0 0 1 -9.45 3.93c1.05 -15.65 -6.38 -22.11 -7.5 -30.89 0.12 0 0.26 0 0.38 -0.09 4.72 -1.56 5.34 -7.91 5.45 -8.49C85.85 80 93.45 86.4 96.74 95.44zM65 81.33c1.73 -1.39 4.29 -15 4.29 -15s-4.1 -1.18 -2.1 -4.44c1.35 -2.21 2.48 0.86 3.11 0.66a59.23 59.23 0 0 0 11.86 -5.2L84.87 62s-1.63 8.21 -3.18 9.9 -4.9 2.2 -4.9 2.2 -1.6 3 -0.44 3.34c2 0.52 3.25 1 3.15 1s-1.2 6.91 -5.13 8.21c-2.72 0.9 -6.19 -0.7 -10.32 -4.75a3.83 3.83 0 0 0 0.95 -0.57zm-9.58 0.23a12.89 12.89 0 0 0 2.51 0.33c2.34 0.25 4.14 0.65 5.67 0.18 0 0 0.07 0.08 0.11 0.12 2.59 2.54 6.41 5.62 10 5.09 1.16 8.84 8.59 15.42 7.49 30.94A55.3 55.3 0 0 1 67.44 121c-1.23 -1.29 -6.33 -7 -9.93 -9.89l0.06 -0.05c1.62 -3.26 2.6 -7.49 3.42 -11.58a0.22 0.22 0 0 0 -0.18 -0.27 0.23 0.23 0 0 0 -0.27 0.18c-0.26 1.31 -0.54 2.64 -0.85 3.95 -0.16 0.61 -15.17 -3.69 -16.63 -5.59 3.55 -7.4 9.28 -14.01 12.35 -16.19zM35.9 100c1.15 -3.25 6 -4.87 8.75 -6.08 -3.9 6.64 -6.62 14.52 -4.24 20.72 1.4 3.65 5.65 6.76 9 8.74 0.29 3.74 3.38 18.47 8.26 21.11l0.43 0.2a3.33 3.33 0 0 0 -1.92 0.1c-1.62 0.95 -4.33 2.27 -6.39 3.52 -6.68 -10.2 -15.07 -45.05 -13.89 -48.31zm-0.56 1.47a29.76 29.76 0 0 0 0.33 3.31c-2.64 1.41 -9.25 7.92 -13.18 13.1 1.27 -15.42 11.96 -16.41 12.85 -16.46zM19.93 123c1.09 -4.12 12.13 -15.7 15.81 -17.81 1.74 11.17 8.57 35.34 13.7 43.29a8.25 8.25 0 0 0 -1.23 0.92c-1.31 1.34 -0.71 2.88 0.91 3.65a22.82 22.82 0 0 1 -8.12 5.14c-0.21 0.08 -0.77 0 -2 -1.11 -6.27 -5.89 -20 -30.41 -19.07 -34.08zm13.34 67.7a21.29 21.29 0 0 1 -4.55 0.17c-0.48 -0.33 -2.54 -5.54 -3 -6.54h10.1c-0.7 1.67 -2.2 5.91 -2.55 6.39zm141.83 0.3a20.06 20.06 0 0 1 -4.55 0.17c-0.49 -0.34 -2.55 -5.82 -3 -6.85h10.14c-0.69 1.68 -2.24 6.2 -2.59 6.68zm14.55 -11.54a4.44 4.44 0 0 1 -4.47 4.4H15.57a4.44 4.44 0 0 1 -4.47 -4.43c0 -0.47 -5.22 -47.06 3.92 -52.25 1.57 -0.9 3.54 -0.47 5.84 1.28 0.3 0.72 0.64 1.48 1 2.28v28.56c0 4.88 2.14 8.85 4.71 8.85h146.09c2.57 0 4.64 -4 4.64 -8.85v-30.66c2.59 -2.49 4.79 -3.33 6.59 -2.48 9.52 4.48 5.8 52.84 5.76 53.33z" stroke-width="1"></path>
  </g>
</svg>