<svg xmlns="http://www.w3.org/2000/svg" viewBox="0 0 100 100" id="Mining-Money--Streamline-Ux">
  <desc>
    Mining Money Streamline Illustration: https://streamlinehq.com
  </desc>
  <path d="M90 50a40 40 0 1 0 -76.436 16.5h72.872A39.829 39.829 0 0 0 90 50z" fill="#b8ecff" stroke-width="1"></path>
  <path d="M13.564 66.5a40 40 0 0 0 72.872 0z" fill="#ccf7ad" stroke-width="1"></path>
  <path d="M11 66.5h78m-82.5 0H9m82 0h2.5" stroke-linejoin="round" stroke-linecap="round" stroke="#45413c" fill="none" stroke-width="1"></path>
  <path d="M54.546 20.129a2.554 2.554 0 0 1 -0.472 0.629l-2 1.986 -0.012 0.024A30.167 30.167 0 0 0 48.3 19l0.025 -0.012 1.985 -2a2.7 2.7 0 0 1 3.765 0 2.675 2.675 0 0 1 0.471 3.141z" fill="#bf8256" stroke-width="1"></path>
  <path d="m50.334 20.873 3.805 -3.8c-0.023 -0.024 -0.041 -0.051 -0.065 -0.074a2.7 2.7 0 0 0 -3.765 0l-1.985 2L48.3 19a35.2 35.2 0 0 1 2.034 1.873z" fill="#e09f7e" stroke-width="1"></path>
  <path d="M43.99 30.856 16.376 58.469A2.663 2.663 0 0 1 12.61 54.7l27.615 -27.61z" fill="#bf8256" stroke-width="1"></path>
  <path d="M40.227 27.093 12.61 54.709a2.648 2.648 0 0 0 0 3.763L42.1 28.968z" fill="#e09f7e" stroke-width="1"></path>
  <path d="M43.99 30.856 16.376 58.469A2.663 2.663 0 0 1 12.61 54.7l27.615 -27.61z" stroke-linejoin="round" stroke-linecap="round" stroke="#45413c" fill="none" stroke-width="1"></path>
  <path d="m79.15 53.3 3.742 13.293h-25.2l1.8 -7.208 1.449 -5.821A9.422 9.422 0 0 1 79.15 53.3z" fill="#adc4d9" stroke-width="1"></path>
  <path d="M70.028 52.141a14.79 14.79 0 0 1 7.418 1.915 11.227 11.227 0 0 1 2.454 1.909l-0.75 -2.665a9.421 9.421 0 0 0 -18.207 0.264l-0.529 2.125a13.966 13.966 0 0 1 9.614 -3.548z" fill="#daedf7" stroke-width="1"></path>
  <path d="M57.692 66.592h-13.23l1.84 -6.969a6.6 6.6 0 0 1 2.381 -3.6 6.7 6.7 0 0 1 10.483 3.288l0.2 0.594z" fill="#adc4d9" stroke-width="1"></path>
  <path d="M48.025 58.884A7.715 7.715 0 0 1 59.164 60.7l0.2 -0.8 -0.2 -0.594a6.7 6.7 0 0 0 -10.481 -3.286 6.6 6.6 0 0 0 -2.381 3.6l-0.563 2.131a7.65 7.65 0 0 1 2.286 -2.867z" fill="#daedf7" stroke-width="1"></path>
  <path d="M57.692 66.592h-13.23l1.84 -6.969a6.6 6.6 0 0 1 2.381 -3.6 6.7 6.7 0 0 1 10.483 3.288l0.2 0.594z" stroke-linejoin="round" stroke-linecap="round" stroke="#45413c" fill="none" stroke-width="1"></path>
  <path d="m59.494 59.384 1.449 -5.821A9.422 9.422 0 0 1 79.15 53.3l3.742 13.293h-25.2z" stroke-linejoin="round" stroke-linecap="round" stroke="#45413c" fill="none" stroke-width="1"></path>
  <path d="M54.546 20.129a2.554 2.554 0 0 1 -0.472 0.629l-2 1.986 -0.012 0.024A30.167 30.167 0 0 0 48.3 19l0.025 -0.012 1.985 -2a2.7 2.7 0 0 1 3.765 0 2.675 2.675 0 0 1 0.471 3.141z" stroke-miterlimit="10" stroke="#45413c" fill="none" stroke-width="1"></path>
  <path d="M52.067 22.763a35.964 35.964 0 0 1 8.775 22.328 1.062 1.062 0 0 1 -2.019 0.509 70.658 70.658 0 0 0 -10.562 -16.024l-1.274 1.282a2.111 2.111 0 0 1 -3 0l-3.763 -3.761a2.136 2.136 0 0 1 0 -3.022l1.264 -1.264a70.676 70.676 0 0 0 -16.006 -10.566 1.052 1.052 0 0 1 0.508 -2A35.881 35.881 0 0 1 48.305 19c0.668 0.566 1.321 1.162 1.961 1.8s1.249 1.294 1.801 1.963z" fill="#adc4d9" stroke-width="1"></path>
  <path d="M50.335 20.874A32.087 32.087 0 0 0 48.305 19a35.881 35.881 0 0 0 -22.315 -8.76 1.052 1.052 0 0 0 -0.508 2 70.676 70.676 0 0 1 16.009 10.567l-1.264 1.264a2.136 2.136 0 0 0 0 3.022l1.945 1.944z" fill="#daedf7" stroke-width="1"></path>
  <path d="M43.99 30.854a2.111 2.111 0 0 0 3 0l1.274 -1.282A70.658 70.658 0 0 1 58.823 45.6a1.062 1.062 0 0 0 2.019 -0.509 35.964 35.964 0 0 0 -8.775 -22.328c-0.552 -0.669 -1.162 -1.322 -1.8 -1.961s-1.293 -1.236 -1.961 -1.8A35.881 35.881 0 0 0 25.99 10.24a1.052 1.052 0 0 0 -0.508 2 70.676 70.676 0 0 1 16.009 10.567l-1.264 1.264a2.136 2.136 0 0 0 0 3.022z" stroke-linejoin="round" stroke-linecap="round" stroke="#45413c" fill="none" stroke-width="1"></path>
  <path d="M74.8 28.254a2.521 2.521 0 0 1 1.889 -1.889l3.791 -0.875a0.315 0.315 0 0 0 0 -0.614L76.685 24a2.521 2.521 0 0 1 -1.885 -1.887l-0.874 -3.789a0.315 0.315 0 0 0 -0.614 0l-0.875 3.788A2.519 2.519 0 0 1 70.545 24l-3.789 0.874a0.315 0.315 0 0 0 0 0.614l3.789 0.875a2.519 2.519 0 0 1 1.888 1.889l0.875 3.79a0.315 0.315 0 0 0 0.614 0zM48.815 46.141l2.965 -0.989a0.278 0.278 0 0 0 0 -0.528l-2.437 -0.813a1.115 1.115 0 0 1 -0.705 -0.7l-0.813 -2.438a0.278 0.278 0 0 0 -0.528 0l-0.812 2.437a1.114 1.114 0 0 1 -0.7 0.7l-2.439 0.813a0.278 0.278 0 0 0 0 0.528l2.439 0.813a1.111 1.111 0 0 1 0.7 0.7l0.813 2.439a0.278 0.278 0 0 0 0.528 0z" fill="#fff48c" stroke-linejoin="round" stroke-linecap="round" stroke="#45413c" stroke-width="1"></path>
  <path d="M78.168 56.939a1.921 1.921 0 0 1 0.308 -3.189 18.2 18.2 0 0 0 7.51 -8.211 1.92 1.92 0 0 1 2.978 -0.767l3.118 2.5a1.92 1.92 0 0 1 0.529 2.328 28.3 28.3 0 0 1 -7.79 9.431 3.373 3.373 0 0 1 -4.155 -0.066z" fill="#6dd627" stroke-linejoin="round" stroke="#45413c" stroke-width="1"></path>
  <path d="M85.422 53.831a1.441 1.441 0 1 0 -0.951 -1.8 1.442 1.442 0 0 0 0.951 1.8z" fill="#c8ffa1" stroke-width="1"></path>
  <path d="M28.646 69.458a1.921 1.921 0 0 0 -1.478 -2.842 18.2 18.2 0 0 1 -10.037 -4.8 1.922 1.922 0 0 0 -3.049 0.4L12.127 65.7a1.918 1.918 0 0 0 0.378 2.357 28.265 28.265 0 0 0 10.753 5.831 3.371 3.371 0 0 0 3.828 -1.614z" fill="#6dd627" stroke-linejoin="round" stroke="#45413c" stroke-width="1"></path>
  <path d="M20.756 69.289a1.441 1.441 0 1 1 0.207 -2.027 1.439 1.439 0 0 1 -0.207 2.027z" fill="#c8ffa1" stroke-width="1"></path>
  <path d="M60.908 64.162a1.921 1.921 0 0 0 -3.086 -0.864 18.2 18.2 0 0 1 -10.367 4.038 1.921 1.921 0 0 0 -1.792 2.5l1.205 3.809a1.916 1.916 0 0 0 1.978 1.335 28.26 28.26 0 0 0 11.608 -3.86 3.369 3.369 0 0 0 1.439 -3.9z" fill="#6dd627" stroke-linejoin="round" stroke="#45413c" stroke-width="1"></path>
  <path d="M55.39 69.805a1.441 1.441 0 1 1 -1.337 -1.538 1.44 1.44 0 0 1 1.337 1.538z" fill="#c8ffa1" stroke-width="1"></path>
  <path d="M73.792 67.4a2.527 2.527 0 0 0 -2.527 -2.527h-8.424a2.527 2.527 0 0 0 0 5.054h8.424a2.527 2.527 0 0 0 2.527 -2.527z" fill="#ffe500" stroke-width="1"></path>
  <path d="M62.841 67.177h8.424a2.525 2.525 0 0 1 2.249 1.377 2.525 2.525 0 0 0 -2.249 -3.677h-8.424a2.527 2.527 0 0 0 -2.249 3.677 2.525 2.525 0 0 1 2.249 -1.377z" fill="#fffacf" stroke-width="1"></path>
  <path d="M73.792 67.4a2.527 2.527 0 0 0 -2.527 -2.527h-8.424a2.527 2.527 0 0 0 0 5.054h8.424a2.527 2.527 0 0 0 2.527 -2.527z" stroke-linejoin="round" stroke-linecap="round" stroke="#45413c" fill="none" stroke-width="1"></path>
  <path d="M81.513 72.458a2.527 2.527 0 0 0 -2.527 -2.528h-8.423a2.528 2.528 0 0 0 0 5.055h8.423a2.527 2.527 0 0 0 2.527 -2.527z" fill="#ffe500" stroke-width="1"></path>
  <path d="M70.563 72.231h8.423a2.527 2.527 0 0 1 2.25 1.377 2.528 2.528 0 0 0 -2.25 -3.678h-8.423a2.528 2.528 0 0 0 -2.25 3.678 2.528 2.528 0 0 1 2.25 -1.377z" fill="#fffacf" stroke-width="1"></path>
  <path d="M81.513 72.458a2.527 2.527 0 0 0 -2.527 -2.528h-8.423a2.528 2.528 0 0 0 0 5.055h8.423a2.527 2.527 0 0 0 2.527 -2.527z" stroke-linejoin="round" stroke-linecap="round" stroke="#45413c" fill="none" stroke-width="1"></path>
  <path d="M68.036 72.458a2.527 2.527 0 0 0 -2.527 -2.528h-8.423a2.528 2.528 0 0 0 0 5.055h8.423a2.527 2.527 0 0 0 2.527 -2.527z" fill="#ffe500" stroke-width="1"></path>
  <path d="M57.086 72.231h8.423a2.527 2.527 0 0 1 2.25 1.377 2.528 2.528 0 0 0 -2.25 -3.678h-8.423a2.528 2.528 0 0 0 -2.25 3.678 2.528 2.528 0 0 1 2.25 -1.377z" fill="#fffacf" stroke-width="1"></path>
  <path d="M68.036 72.458a2.527 2.527 0 0 0 -2.527 -2.528h-8.423a2.528 2.528 0 0 0 0 5.055h8.423a2.527 2.527 0 0 0 2.527 -2.527z" stroke-linejoin="round" stroke-linecap="round" stroke="#45413c" fill="none" stroke-width="1"></path>
  <path d="M37.571 67.4a2.527 2.527 0 0 0 -2.527 -2.527h-8.423a2.527 2.527 0 1 0 0 5.054h8.423a2.527 2.527 0 0 0 2.527 -2.527z" fill="#ffe500" stroke-width="1"></path>
  <path d="M26.621 67.177h8.423a2.527 2.527 0 0 1 2.25 1.377 2.527 2.527 0 0 0 -2.25 -3.677h-8.423a2.527 2.527 0 0 0 -2.25 3.677 2.528 2.528 0 0 1 2.25 -1.377z" fill="#fffacf" stroke-width="1"></path>
  <path d="M37.571 67.4a2.527 2.527 0 0 0 -2.527 -2.527h-8.423a2.527 2.527 0 1 0 0 5.054h8.423a2.527 2.527 0 0 0 2.527 -2.527z" stroke-linejoin="round" stroke-linecap="round" stroke="#45413c" fill="none" stroke-width="1"></path>
  <path d="M40.941 72.458a2.527 2.527 0 0 0 -2.527 -2.528h-8.423a2.528 2.528 0 0 0 0 5.055h8.423a2.527 2.527 0 0 0 2.527 -2.527z" fill="#ffe500" stroke-width="1"></path>
  <path d="M29.991 72.231h8.423a2.527 2.527 0 0 1 2.25 1.377 2.528 2.528 0 0 0 -2.25 -3.678h-8.423a2.528 2.528 0 0 0 -2.25 3.678 2.527 2.527 0 0 1 2.25 -1.377z" fill="#fffacf" stroke-width="1"></path>
  <path d="M40.941 72.458a2.527 2.527 0 0 0 -2.527 -2.528h-8.423a2.528 2.528 0 0 0 0 5.055h8.423a2.527 2.527 0 0 0 2.527 -2.527z" stroke-linejoin="round" stroke-linecap="round" stroke="#45413c" fill="none" stroke-width="1"></path>
  <path d="M27.463 72.458a2.527 2.527 0 0 0 -2.527 -2.528h-8.424a2.528 2.528 0 0 0 0 5.055h8.424a2.527 2.527 0 0 0 2.527 -2.527z" fill="#ffe500" stroke-width="1"></path>
  <path d="M16.512 72.231h8.424a2.525 2.525 0 0 1 2.249 1.377 2.526 2.526 0 0 0 -2.249 -3.678h-8.424a2.528 2.528 0 0 0 -2.249 3.678 2.525 2.525 0 0 1 2.249 -1.377z" fill="#fffacf" stroke-width="1"></path>
  <path d="M27.463 72.458a2.527 2.527 0 0 0 -2.527 -2.528h-8.424a2.528 2.528 0 0 0 0 5.055h8.424a2.527 2.527 0 0 0 2.527 -2.527z" stroke-linejoin="round" stroke-linecap="round" stroke="#45413c" fill="none" stroke-width="1"></path>
  <path fill="#45413c" opacity=".15" d="M10.475 75.687a36.853 2.106 0 1 0 73.706 0 36.853 2.106 0 1 0 -73.706 0" stroke-width="1"></path>
  <path d="M71.648 76.975a1.921 1.921 0 0 1 1.471 -2.847A18.193 18.193 0 0 0 83.144 69.3a1.921 1.921 0 0 1 3.05 0.395l1.965 3.478a1.919 1.919 0 0 1 -0.375 2.358 28.262 28.262 0 0 1 -10.739 5.857 3.37 3.37 0 0 1 -3.831 -1.606z" fill="#6dd627" stroke-linejoin="round" stroke="#45413c" stroke-width="1"></path>
  <path d="M79.537 76.788a1.441 1.441 0 1 0 -0.212 -2.028 1.443 1.443 0 0 0 0.212 2.028z" fill="#c8ffa1" stroke-width="1"></path>
  <path d="M37.891 75.653a1.921 1.921 0 0 0 -2.222 -2.307 18.2 18.2 0 0 1 -10.988 -1.766 1.923 1.923 0 0 0 -2.81 1.25l-0.888 3.895a1.916 1.916 0 0 0 1.031 2.153 28.275 28.275 0 0 0 11.964 2.547 3.371 3.371 0 0 0 3.214 -2.633z" fill="#6dd627" stroke-linejoin="round" stroke="#45413c" stroke-width="1"></path>
  <path d="M30.277 77.727a1.441 1.441 0 1 1 -0.376 -2 1.442 1.442 0 0 1 0.376 2z" fill="#c8ffa1" stroke-width="1"></path>
</svg>