<svg xmlns="http://www.w3.org/2000/svg" viewBox="0 0 200 200" id="Walking-A-Dog-1--Streamline-Barcelona">
  <desc>
    Walking A Dog 1 Streamline Illustration: https://streamlinehq.com
  </desc>
  <defs></defs>
  <path d="M25.344 120.9c-1.052 0.3 -2.255 0.05 -3.358 0.3 -1.2 0.2 -1.6 1.2 -0.25 1.754a5.629 5.629 0 0 0 6.415 -2.306 6.611 6.611 0 0 0 0.25 -1.6 7.2 7.2 0 0 1 -3.057 1.852z" fill="#ff8684" stroke-width="1"></path>
  <path d="M90.65 125.762C93.356 122 89.2 122.6 89.2 122.6c2.506 -6.265 -2.706 -11.728 -2.706 -11.728 3.057 11.578 -5.513 16.89 -9.673 18.695a13.357 13.357 0 0 0 -6.716 -1 52.159 52.159 0 0 1 -14.585 -0.4 12.76 12.76 0 0 1 -9.322 -7.317c-0.4 -0.852 -0.752 -1.855 -1.153 -2.957 -2.024 -5.911 -7.163 -9.659 -13.783 -8.871 -3.207 0.351 -5.814 1.854 -9.122 1.4 -2.806 -0.4 -5.763 -1.353 -7.768 -3.458a0.378 0.378 0 0 0 -0.6 0.05c-0.953 1.253 -3.659 5.613 0.7 9.673 4.511 4.16 11.327 1.153 13.132 0.251a0.42 0.42 0 0 1 0.6 0.3c0.351 1.7 0.752 7.268 -7.468 9.623a0.379 0.379 0 0 0 -0.25 0.552 3.034 3.034 0 0 0 2.606 2.1c2.3 0.2 5.212 1.9 3.558 6.916a19.375 19.375 0 0 0 -0.8 6.566 63.231 63.231 0 0 1 -19.5 13.482c-1.56 0.624 -1.333 2.118 1.754 1.554a3.049 3.049 0 0 0 -1.3 1.453 0.865 0.865 0 0 0 -0.05 0.7 2.026 2.026 0 0 0 2.506 -0.251 1.1 1.1 0 0 1 -0.2 0.251 0.807 0.807 0 0 0 0.6 1.2 5.825 5.825 0 0 0 2.857 -0.652 72.134 72.134 0 0 0 15.783 -9.76 6.6 6.6 0 0 0 2.306 1.954c7.677 3.839 22.06 5.459 35.885 1.1a8.288 8.288 0 0 0 9.022 2.106 1.812 1.812 0 0 1 1.253 -0.1c0.545 0.234 0.741 0.784 3.157 5.012 0.251 0.451 0.652 1.353 1.153 1.453s0.952 -1.052 0.551 -1.353c0.3 0.251 0.8 1 1.253 0.952 0.552 -0.1 0.552 -1.4 0.05 -1.5 0.3 0.05 0.852 0.6 1.2 0.451 1.053 -0.5 -1.453 -4.311 -1.8 -4.911a23.682 23.682 0 0 0 -5.563 -6.265 20.06 20.06 0 0 0 5.864 -3.81c4.035 -4.036 2.633 -9.376 -1.3 -13.332 14.033 -0.8 8.52 -4.31 8.52 -4.31 2.503 -2.006 0.799 -2.657 0.799 -2.657z" fill="#ff8684" stroke-width="1"></path>
  <path d="m28.6 151.122 -0.451 -0.6a69.09 69.09 0 0 1 -12.58 8.27c-1.5 0.751 -3.759 2.255 -5.613 2.1a0.513 0.513 0 0 1 -0.4 -0.752 2.712 2.712 0 0 1 0.35 -0.451 0.393 0.393 0 0 0 -0.551 -0.552c-0.351 0.4 -1.554 1.3 -2.1 0.752s0.752 -1.5 1.053 -1.7c0.4 -0.25 0.1 -0.752 -0.3 -0.7 -0.351 0.051 -2.406 0.5 -1.754 -0.7 0.291 -0.486 9.578 -3.365 19.647 -13.432 0 -0.351 -0.051 -0.7 -0.051 -1a62.618 62.618 0 0 1 -17.191 12.48c-1 0.5 -2.556 0.852 -3.307 1.7 -0.718 0.807 -0.2 1.646 0.751 1.8a0.5 0.5 0 0 1 0.351 0.7 1.062 1.062 0 0 0 0.1 1.353 1.6 1.6 0 0 0 1.4 0.351 0.806 0.806 0 0 1 0.451 0.151 3.219 3.219 0 0 0 0.651 0.6 2.874 2.874 0 0 0 1.454 0.1 9.115 9.115 0 0 0 3.207 -1.152 69.065 69.065 0 0 0 14.883 -9.318zm48.618 -1.554c-0.251 0.1 -0.5 0.251 -0.752 0.351a25.965 25.965 0 0 1 5.814 6.566c0.342 0.57 1.8 2.968 1.8 3.608 0 0.4 0.2 0.452 -0.351 0.3 -0.15 -0.051 -0.35 -0.2 -0.551 -0.3 -0.451 -0.2 -0.7 0.5 -0.25 0.7 0.05 0.15 0.1 0.351 0.15 0.5q-0.3 0.377 -0.451 0c-0.2 -0.1 -0.4 -0.4 -0.552 -0.551a0.377 0.377 0 0 0 -0.6 0.451c0.15 0.5 -0.05 0.652 -0.6 0.4a13.522 13.522 0 0 1 -1 -1.754c-0.5 -0.852 -0.952 -1.654 -1.453 -2.506 -0.752 -1.353 -1.2 -2.155 -2.857 -1.754 -3.057 0.8 -6.516 0.4 -8.57 -1.905 -0.251 0.1 -0.5 0.151 -0.752 0.251a7.657 7.657 0 0 0 2.957 2.206 9.023 9.023 0 0 0 3.608 0.651c1.3 -0.051 3.459 -1.1 4.461 0a8.817 8.817 0 0 1 1.053 1.9c0.35 0.652 0.7 1.253 1.052 1.905 0.351 0.6 0.7 1.6 1.353 1.954s1.153 -0.1 1.353 -0.651c0.452 0.351 0.953 0.6 1.354 0.1a1.363 1.363 0 0 0 0.3 -0.852c0.5 0.15 0.9 0.1 1.053 -0.652 0.2 -1.052 -0.7 -2.405 -1.2 -3.257a28.258 28.258 0 0 0 -6.369 -7.661zm-35.485 1.554c-0.659 2 -2.456 3.659 -3.859 5.212 -3.655 4.021 -11.572 11.3 -11.828 11.528a18.906 18.906 0 0 1 -1.554 1.253c-0.432 0.309 -1.192 0.881 -1.7 0.752a1.117 1.117 0 0 1 -0.652 -1.052c0 -0.251 0.2 -0.5 0.1 -0.752a0.328 0.328 0 0 0 -0.5 -0.151c-0.164 0.153 -0.014 0.118 -1.253 1 -0.315 0.225 -1.039 0.889 -1.453 0.752 -0.6 -0.1 -0.7 -0.953 -0.4 -1.354 0.2 -0.3 0.551 -0.451 0.7 -0.751a0.479 0.479 0 0 0 -0.2 -0.652c-0.15 -0.051 -0.3 0.05 -0.451 0.1 -0.451 0.25 -0.852 0.451 -1.3 0.7a1 1 0 0 1 -0.9 0.15 0.693 0.693 0 0 1 -0.2 -0.8c0.367 -0.735 5.371 -3.692 9.373 -7.618a37.421 37.421 0 0 0 7.768 -10.776 1.134 1.134 0 0 0 0.151 -0.551 0.356 0.356 0 0 0 -0.4 -0.351 0.484 0.484 0 0 0 -0.351 0.4c-3.007 6.565 -8.22 11.979 -14.184 16.088 -1.64 1.158 -3.491 2.261 -3.308 3.358a1.284 1.284 0 0 0 1.053 1 2.594 2.594 0 0 0 1.5 -0.251c-0.288 0.173 -0.394 1.416 0.5 2.055 0.9 0.552 2.055 -0.35 2.707 -0.9a1.969 1.969 0 0 0 2.105 1.153c1.628 -0.271 3.317 -2.156 6.967 -5.513 2.355 -2.256 4.761 -4.511 7.016 -6.867 1.905 -2 4.461 -4.21 5.363 -6.866 0.092 -0.546 -0.661 -0.747 -0.81 -0.296z" fill="#000000" stroke-width="1"></path>
  <path d="M96.614 150.27a26.616 26.616 0 0 0 -6.766 -7.167c-0.9 -0.652 -1.905 -1.153 -2.807 -1.8a7.9 7.9 0 0 1 -2.3 -3.108c-0.2 -0.451 -0.852 -0.05 -0.652 0.4a8.331 8.331 0 0 0 2.255 3.158c2.394 1.861 5.441 2.852 9.373 8.57 0.15 0.251 0.5 0.552 0.4 0.852 -0.1 0.351 -0.7 0 -0.9 -0.2 -0.3 -0.25 -0.852 0.1 -0.6 0.452l0.05 0.05c0.151 0.2 0.451 0.5 0.351 0.7 -0.1 0.351 -0.651 0.15 -0.952 -0.05 -0.4 -0.251 -0.8 0.4 -0.4 0.651 0.351 0.451 0.15 0.652 -0.5 0.7a55.152 55.152 0 0 1 -7.217 -7.166 0.393 0.393 0 0 0 -0.552 0c-4.565 4.465 -12.33 2.817 -15.487 -3.86 -0.2 -0.45 -0.852 -0.05 -0.651 0.4 3.5 7.106 11.474 8.663 16.389 4.26a38.174 38.174 0 0 0 7.017 6.916c0.6 0.4 1.353 0.6 1.754 -0.15a3.251 3.251 0 0 0 0.2 -0.652c0.921 0.264 1.386 -0.487 1.153 -1.3a0.953 0.953 0 0 0 1.1 -0.4c0.343 -0.354 -0.009 -0.854 -0.258 -1.256z" fill="#000000" stroke-width="1"></path>
  <path d="M185.025 57.048c-1.7 -0.852 -4.661 -0.05 -6.465 0.251a146.206 146.206 0 0 0 -14.636 3.708c-0.4 0.1 -2.706 0.5 -2.906 0.9 1.3 -2.857 2.556 -5.714 3.759 -8.621 0.952 -2.356 7.718 -16.289 2.305 -16.89a3.99 3.99 0 0 0 -1.854 0.4c-1.905 0.9 -2.456 2.957 -3.308 4.711 -1.946 3.988 -5.958 11.65 -8.821 15.086a72.373 72.373 0 0 0 2.101 10.78 72.456 72.456 0 0 0 2.807 8.57c3.407 -1.7 6.816 -3.508 10.174 -5.363 5.563 -3.107 12.83 -6.415 16.89 -11.427a0.39 0.39 0 0 1 0.2 -0.2 1.365 1.365 0 0 0 0.4 -0.8 1.115 1.115 0 0 0 -0.646 -1.105z" fill="#fcafb7" stroke-width="1"></path>
  <path d="M138.564 30.384c-1.854 -0.4 -1.3 1.654 -1.754 2.707a1.7 1.7 0 0 1 -1.2 1.052c-0.8 0.151 -1.5 -0.451 -2.306 -0.6a2.989 2.989 0 0 0 -2.555 1.2c-2 2.405 -0.752 5.763 -2.707 8.069a7.185 7.185 0 0 1 -5.012 2.155c-7.418 0.551 -4.31 6.666 -5.864 8.119 -0.674 0.666 -2.15 0.716 -3.058 1 -4.009 1.2 -5.663 6.515 -5.262 10.274a6.344 6.344 0 0 0 5.592 5.794 1.512 1.512 0 0 1 1.425 -0.982 6.518 6.518 0 0 1 9.021 -8.621 1.4 1.4 0 0 1 1.354 -1 1.5 1.5 0 0 1 0.7 2.857 6.388 6.388 0 0 1 0.919 1.891 54.478 54.478 0 0 0 12.563 -15.875 6.384 6.384 0 0 0 0.452 -5.463c-0.251 -0.5 -0.552 -0.9 -0.752 -1.4 -0.552 -1.3 0.852 -2.857 1.253 -4.11 1.175 -3.536 -0.413 -6.534 -2.809 -7.067z" fill="#ffd35c" stroke-width="1"></path>
  <path d="M130.326 70.622a12.73 12.73 0 0 1 -4.392 0.459 6.538 6.538 0 0 1 -2.815 1.437l-15.679 9.59 4.26 5.813s12.78 -4.009 19.246 -9.422c2.778 -2.273 2.505 -6.474 -0.62 -7.877zm17.51 -24.6s-4.511 12.63 -10.124 18.9a4.577 4.577 0 1 1 -7.267 -5.564l11.778 -17.792z" fill="#6dd3a8" stroke-width="1"></path>
  <path d="M155.3 67.673a72.4 72.4 0 0 1 -2.3 -12.079c-7.769 2.155 -20.549 4.762 -23.006 6.516a6.891 6.891 0 0 0 -2.073 2.423c0.024 0.093 0.048 0.188 0.069 0.284 1.153 0.35 5.162 1.754 4.41 4.059 -0.673 1.94 -3.816 2.223 -5.5 2.231 0.518 4.007 4.126 7.055 8.761 7.292 7.719 0.4 16.339 0.25 22.905 -1.2a83.768 83.768 0 0 1 -3.266 -9.526z" fill="#aceac7" stroke-width="1"></path>
  <path d="M12.163 111.428s2.907 0.8 5.563 -2.156l-3.559 -2.556c0 -0.05 -2.355 2.155 -2.004 4.712zm42.1 -6.516c-1.855 -2.706 -17.943 4.511 -17.943 4.511s19.797 -1.805 17.943 -4.511zm3.208 10.024c-0.476 -3.254 -18.043 -4.01 -18.043 -4.01s18.519 7.274 18.043 4.01zm-28.418 -3.408a0.952 0.952 0 1 1 -0.952 0.952 0.952 0.952 0 0 1 0.952 -0.952z" fill="#000000" stroke-width="1"></path>
  <path d="M33.915 114.786a0.952 0.952 0 1 0 1.904 0 0.952 0.952 0 1 0 -1.904 0" fill="#000000" stroke-width="1"></path>
  <path d="M137.762 59.754a10.97 10.97 0 0 1 1.905 3.96c1.5 4.711 1.654 9.773 1.5 14.635 0 0.5 0.752 0.451 0.752 0a43.451 43.451 0 0 0 -1.554 -15.036 11.1 11.1 0 0 0 -2.055 -4.06 0.373 0.373 0 0 0 -0.548 0.501zm4.962 -0.754a13.481 13.481 0 0 1 1.905 4.109 44.784 44.784 0 0 1 1.453 14.836c0 0.5 0.751 0.451 0.751 0a44.331 44.331 0 0 0 -1.553 -15.186 11.667 11.667 0 0 0 -2 -4.211 0.359 0.359 0 1 0 -0.556 0.452z" fill="#6dd3a8" stroke-width="1"></path>
  <path d="M170.891 30.986c-4.842 -3.1 -6.512 -4.861 -8.019 -3.909a1.6 1.6 0 0 0 -0.652 1.954c0.452 1.153 2 1.353 2.807 2.205 0.952 0.953 0.9 2.456 1.905 3.308 0 0.05 0.05 0.05 0.1 0.1 1 0.6 2.706 1.9 3.959 1.453a3.481 3.481 0 0 0 1.9 -2.506c0.209 -1.402 -1.051 -1.999 -2 -2.605zm1.2 2.756a3.015 3.015 0 0 1 -0.9 1.354c-0.952 0.7 -2.907 -0.6 -3.759 -1.1 -0.7 -0.5 -0.752 -1.654 -1.2 -2.356 -1.13 -1.883 -2.333 -1.706 -3.007 -2.455 -0.551 -0.652 -0.4 -1.5 0.6 -1.6 0.706 -0.064 1.555 0.636 6.917 4.16 0.65 0.444 1.62 0.849 1.352 1.997zM194.8 60.406a15.064 15.064 0 0 0 -1.8 -3.007c-0.9 -1.3 -1.7 -2.707 -2.506 -4.06 -1.1 -1.754 -2.607 -1.153 -4.009 -0.05 -1.555 1.253 0.049 3.358 0.751 4.661 0 0.05 0 0.05 0.05 0.1a0.178 0.178 0 0 0 0.051 0.1c0.751 1 2.2 1 3.157 1.854a6.451 6.451 0 0 1 1.1 1.5 3.529 3.529 0 0 0 0.8 1.3c1.15 0.871 3.239 -0.213 2.406 -2.398zm-2.356 1.1a5.611 5.611 0 0 0 -2.556 -2.907c-0.6 -0.3 -1.6 -0.4 -1.954 -1 -0.251 -0.5 -0.5 -1 -0.752 -1.553 -0.451 -0.9 -1 -1.654 0 -2.406 0.952 -0.752 2 -1.1 2.807 0.15 0.7 1.153 1.353 2.356 2.105 3.458 0.967 1.408 2.255 3.077 2.255 3.96 -0.102 1.303 -1.433 1.242 -1.907 0.301zM151.7 36.549c-0.318 -0.745 -0.952 -0.5 -1.453 -0.05a1.4 1.4 0 0 0 -0.652 -1.353c-0.6 -0.3 -1.253 0.35 -1.754 0.952 -0.1 -1 -0.451 -2.055 -1.6 -1.554 -0.6 0.251 -0.9 1.1 -1.154 1.654a18.311 18.311 0 0 0 -0.7 1.754c-0.6 -1.319 -1.811 -0.517 -1.955 0.9a25.878 25.878 0 0 0 -0.1 2.807l0.752 0.6c0 -0.853 -0.151 -1.454 -0.151 -2.356a2.989 2.989 0 0 1 0.451 -1.6c0.5 -0.451 0.6 0.652 0.6 1a0.389 0.389 0 0 0 0.752 0.1 20.227 20.227 0 0 1 1.453 -3.709c0.3 -0.351 0.8 -0.6 1 -0.151a6.873 6.873 0 0 1 0 1.755 0.38 0.38 0 0 0 0.7 0.2c0.2 -0.3 1.153 -2.1 1.605 -1.4a5.079 5.079 0 0 1 0 1.5c-0.051 0.4 0.5 0.451 0.7 0.2 0.3 -0.451 0.952 -1.153 1 -0.351a6 6 0 0 1 -0.752 1.854 21.846 21.846 0 0 1 -2.656 5.063c-0.2 0.25 -0.4 0.651 -0.6 0.852a0.663 0.663 0 0 0 -0.2 0.15l0.7 0.551a26.92 26.92 0 0 0 3.859 -7.267c0.055 -0.598 0.388 -1.544 0.155 -2.101zM111.1 87.17l-0.45 -0.652c-0.691 0.614 -1.852 1.082 -1.6 1.454a2.833 2.833 0 0 1 0.15 1.8c-0.651 1.453 -1.454 -0.5 -1.7 -0.952 -0.2 -0.452 -0.8 -0.051 -0.652 0.4 0.2 0.4 0.7 1.8 0.051 2.155 -0.7 0.4 -1.1 -0.852 -1.2 -1.3a0.384 0.384 0 0 0 -0.752 0.1 2.267 2.267 0 0 1 -0.1 1.153c-0.149 0.651 -0.651 0.8 -1.453 0.5a2.421 2.421 0 0 1 -0.551 -1.5 4.027 4.027 0 0 1 0.952 -3.358 28.529 28.529 0 0 1 4.661 -3.408l-0.451 -0.6a48.543 48.543 0 0 0 -4.46 3.257 4.89 4.89 0 0 0 -0.792 6.056C87.3 105.541 68.871 117.744 49.5 125.01l-1.053 -1.4c-12.83 12.631 -22.2 7.819 -22.2 7.819l0.753 2.903c11.929 4.361 23.205 -8.42 23.205 -8.42l-0.25 -0.351a98.88 98.88 0 0 0 9.172 -3.909 193.051 193.051 0 0 0 44.146 -28.9 1.541 1.541 0 0 0 2.214 -1.118c0.4 0.552 0.953 0.953 1.6 0.552a1.544 1.544 0 0 0 0.752 -1.253 1.009 1.009 0 0 0 1.4 0.1c0.852 -0.6 0.8 -2 0.552 -2.957a15.616 15.616 0 0 0 1.309 -0.906zm17.14 -22.504a9.116 9.116 0 0 0 -0.8 -1.9 1.87 1.87 0 1 0 -2.757 -2.455 6.86 6.86 0 0 0 -9.372 8.821 1.924 1.924 0 0 0 -1 2.907 1.81 1.81 0 0 0 3.108 -0.151 7 7 0 0 0 8.671 -0.15c2.155 0.2 6.264 0.05 6.966 -2.556 0.644 -2.511 -2.862 -3.965 -4.816 -4.516zm-2.406 6.215a6.228 6.228 0 0 1 -8.32 0.15 0.364 0.364 0 0 0 -0.6 0.151c-0.451 1.1 -2.206 1 -2.256 -0.251a1.248 1.248 0 0 1 1.153 -1.2 0.351 0.351 0 0 0 0.3 -0.551 6.192 6.192 0 0 1 8.521 -8.12 0.358 0.358 0 0 0 0.5 -0.15c0.953 -1.854 3.358 0.251 1.6 1.4 -0.133 0.133 -0.3 0.28 -0.15 0.5a6.275 6.275 0 0 1 -0.748 8.071zm6.365 -1.7c-0.756 1.7 -3.559 1.9 -5.413 1.8a7 7 0 0 0 1.654 -5.513c1.654 0.551 4.606 1.802 3.76 3.709z" fill="#000000" stroke-width="1"></path>
  <path d="M118.616 67.473a0.451 0.451 0 0 0 0 0.9 0.451 0.451 0 0 0 0 -0.9zm4.661 -3.759a0.451 0.451 0 0 0 0 0.9 0.451 0.451 0 0 0 0 -0.9zm1.705 1.553a0.41 0.41 0 0 0 -0.6 0.051c-0.551 1.353 -1.754 3.508 -3.558 3.408 -0.451 -0.05 -0.451 0.7 0 0.752 1.854 0.1 3.207 -1.755 3.959 -3.308 0.9 1.253 -0.1 2.806 -1.153 3.759 -0.35 0.3 0.151 0.852 0.552 0.551 1.501 -1.303 2.604 -3.609 0.8 -5.213zm-3.86 -2.105a2.038 2.038 0 0 1 2.506 -0.9c0.451 0.2 0.8 -0.451 0.4 -0.651a2.746 2.746 0 0 0 -3.508 1.152 0.361 0.361 0 1 0 0.602 0.399zm-2.956 1.053a2.755 2.755 0 0 0 -1.955 3.157c0.05 0.452 0.8 0.251 0.7 -0.2 0.064 0.259 -0.067 -0.386 0.05 -0.852a1.852 1.852 0 0 1 1.353 -1.353 0.384 0.384 0 1 0 -0.148 -0.752zm-7.117 -3.559a9.334 9.334 0 0 0 -0.2 2.557c0.05 0.451 0.8 0.451 0.752 0a7.4 7.4 0 0 1 0.15 -2.356c0.099 -0.501 -0.594 -0.7 -0.702 -0.201zm3.157 -1.556a3.851 3.851 0 0 1 0.852 -1.354c0.351 -0.35 -0.2 -0.852 -0.551 -0.551a5.8 5.8 0 0 0 -1.053 1.654 0.4 0.4 0 0 0 0.752 0.251zm2.105 0a1.91 1.91 0 0 1 0.8 -1.3 0.383 0.383 0 0 0 -0.4 -0.652 2.708 2.708 0 0 0 -1.153 1.7c-0.049 0.552 0.657 0.757 0.753 0.252zm4.561 -8.518a7.563 7.563 0 0 1 0.752 -2c0.25 -0.4 -0.4 -0.8 -0.652 -0.4a5.6 5.6 0 0 0 -0.8 2.155c-0.102 0.496 0.601 0.697 0.7 0.245zm2.255 -0.952a0.649 0.649 0 0 1 0.5 -0.5c0.451 -0.1 0.251 -0.852 -0.2 -0.7a1.515 1.515 0 0 0 -1.053 1c-0.099 0.451 0.657 0.652 0.753 0.2zm2.155 -2.456a1.825 1.825 0 0 1 1.153 -0.351c0.5 0.051 0.5 -0.7 0 -0.751a2 2 0 0 0 -1.5 0.451c-0.405 0.3 -0.057 0.947 0.347 0.651zm7.218 -9.222a1.7 1.7 0 0 1 0.751 -1.553c0.4 -0.251 0 -0.9 -0.4 -0.652a2.471 2.471 0 0 0 -1.152 2.2c0.049 0.453 0.801 0.453 0.801 0.005zm1.4 -0.601a4.525 4.525 0 0 0 -0.652 2.255 0.376 0.376 0 0 0 0.752 0 3.666 3.666 0 0 1 0.551 -1.9c0.204 -0.355 -0.451 -0.756 -0.651 -0.355zm-62.095 134.32a79.107 79.107 0 0 1 -13.783 0c-0.4 -0.05 -0.4 0.6 0 0.652a79.107 79.107 0 0 0 13.783 0c0.351 -0.051 0.401 -0.652 0 -0.652zM46.8 169.215c-5.764 0.05 -11.527 0.2 -17.291 0.3a0.326 0.326 0 0 0 0 0.652l17.291 -0.3c0.4 0 0.446 -0.656 0 -0.652zm4.255 -4.26c-3.759 0.2 -7.518 0.351 -11.276 0.551a0.326 0.326 0 0 0 0 0.652c3.758 -0.2 7.517 -0.351 11.276 -0.551 0.401 -0.05 0.401 -0.702 0 -0.652zm-10.876 8.32c-1.352 0.16 -2.656 0.3 -4.009 0.4 -0.4 0.05 -0.4 0.7 0 0.652 1.353 -0.151 2.656 -0.3 4.009 -0.4 0.351 -0.051 0.402 -0.7 0 -0.652zm-28.267 -3.709c-1.352 0.161 -2.656 0.3 -4.01 0.4 -0.4 0.05 -0.451 0.7 0 0.652 1.354 -0.151 2.657 -0.3 4.01 -0.4 0.351 -0.05 0.401 -0.699 0 -0.652zm12.129 2.456c-1.353 0.151 -2.656 0.3 -4.009 0.4 -0.4 0.05 -0.4 0.7 0 0.652 1.353 -0.151 2.656 -0.3 4.009 -0.4 0.401 -0.051 0.401 -0.652 0 -0.652zm64.504 0.752c-1.352 0.159 -2.657 0.3 -4.01 0.4 -0.4 0.05 -0.451 0.7 0 0.652 1.353 -0.151 2.656 -0.3 4.01 -0.4 0.355 -0.051 0.401 -0.7 0 -0.652zm-63.451 2.706c-3.109 0.05 -6.165 0.151 -9.272 0.251a0.326 0.326 0 0 0 0 0.651c3.107 -0.1 6.164 -0.15 9.272 -0.25 0.406 0 0.406 -0.658 0 -0.652z" fill="#000000" stroke-width="1"></path>
  <path d="M79.373 164.3c-0.551 -1 -1.053 -2 -1.6 -3.058a0.375 0.375 0 0 0 -0.651 0c-0.351 0.752 -0.7 1.454 -1.053 2.206a11.994 11.994 0 0 0 -1.9 -2.607 0.36 0.36 0 0 0 -0.6 0.15c-0.251 0.9 -0.551 1.754 -0.8 2.607a10.56 10.56 0 0 0 -2.005 -1.955c-0.15 -0.1 -0.451 -0.05 -0.5 0.151a6.227 6.227 0 0 0 -0.551 2.355c-0.05 0.5 0.7 0.5 0.752 0a7.13 7.13 0 0 1 0.3 -1.553 10.013 10.013 0 0 1 1.855 2 0.388 0.388 0 0 0 0.7 -0.1c0.3 -0.9 0.552 -1.8 0.853 -2.706a10.511 10.511 0 0 1 1.7 2.656 0.376 0.376 0 0 0 0.651 0c0.351 -0.752 0.7 -1.454 1.053 -2.206 0.4 0.8 0.852 1.605 1.253 2.407 0.092 0.459 0.743 0.107 0.543 -0.347zm29.069 -1.2a0.375 0.375 0 0 0 -0.651 0 19.567 19.567 0 0 1 -1.554 2 9.656 9.656 0 0 0 -1.3 -2.706c-0.15 -0.15 -0.4 -0.3 -0.6 -0.05a6.118 6.118 0 0 0 -1.2 2.506 8.65 8.65 0 0 0 -2.557 -2.306 0.367 0.367 0 0 0 -0.551 0.3c0.05 1.2 0.151 2.456 0.2 3.659a0.376 0.376 0 1 0 0.751 0c-0.05 -1 -0.1 -2 -0.2 -2.957a7.55 7.55 0 0 1 2.3 2.556 0.38 0.38 0 0 0 0.7 -0.2 5.518 5.518 0 0 1 0.8 -2.707 7.545 7.545 0 0 1 1.1 2.707 0.364 0.364 0 0 0 0.6 0.15 13.935 13.935 0 0 0 1.754 -2.1 15.269 15.269 0 0 1 0.953 2.055c0.2 0.451 0.9 0.25 0.7 -0.2a14.868 14.868 0 0 0 -1.245 -2.707zm27.767 2.056a14.877 14.877 0 0 0 -2.957 1.5l0.149 -2.1c0 -0.25 -0.25 -0.451 -0.45 -0.35a8.1 8.1 0 0 0 -2.957 1.8 13.363 13.363 0 0 1 -0.6 -2.806 0.386 0.386 0 0 0 -0.651 -0.25 7.478 7.478 0 0 0 -2.656 4.46c-0.1 0.451 0.651 0.652 0.7 0.2a6.4 6.4 0 0 1 1.954 -3.61 14 14 0 0 0 0.752 2.856c0.1 0.251 0.4 0.4 0.6 0.151a8.122 8.122 0 0 1 2.506 -1.854c-0.051 0.752 -0.1 1.5 -0.15 2.305a0.382 0.382 0 0 0 0.651 0.251 11.97 11.97 0 0 1 3.308 -1.855c0.452 -0.147 0.248 -0.854 -0.199 -0.698z" fill="#6dd3a8" stroke-width="1"></path>
  <path d="M99.972 41.21c-2.407 -5.61 -9.572 -8.219 -15.236 -6.566 0.551 -2.355 -2.005 -4.059 -4.21 -4.36a4.8 4.8 0 0 0 -2.055 0.05c-2.055 -3.258 -5.313 -6.766 -9.473 -6.716 -3.007 0 -6.164 2.005 -6.666 5.062a6.915 6.915 0 0 0 -3.658 -1.854 11.837 11.837 0 0 0 -6.065 0.1c-2.406 0.852 -4.31 3.659 -3.458 6.014 -3.208 -1.654 -7.167 -2.2 -10.224 0.1a6.027 6.027 0 0 0 -1.654 7.919c-3.459 -1.053 -7.167 -1.855 -10.626 -0.452 -6.034 2.5 -7.237 11.262 3.208 12.48a16.972 16.972 0 0 0 10.876 -2.406 9.722 9.722 0 0 0 17.141 0.051c6.428 6.964 14.189 5.111 16.489 0.05 6.043 4.584 14.493 3.139 13.282 -1.7a11.009 11.009 0 0 0 7.869 -0.652c3.602 -1.564 6.02 -3.48 4.46 -7.12zm-5.012 6.566a9.659 9.659 0 0 1 -8.069 0.05 1.376 1.376 0 0 0 -0.752 -0.4c-0.4 -0.15 -0.651 0.451 -0.3 0.7a3.271 3.271 0 0 0 0.7 0.4 2.261 2.261 0 0 1 -0.25 3.057c-1.781 1.611 -7.338 1.97 -11.829 -1.7a0.364 0.364 0 0 0 -0.6 0.15 7.25 7.25 0 0 1 -7.267 4.461c-3.409 -0.151 -6.366 -2.306 -8.521 -4.711a0.382 0.382 0 0 0 -0.6 0.1 8.988 8.988 0 0 1 -16.289 0.05 0.405 0.405 0 0 0 -0.5 -0.15 16.021 16.021 0 0 1 -9.373 2.606c-2.957 -0.1 -7.317 -1.053 -8.269 -4.311 -1 -3.408 1.854 -6.365 4.911 -7.217 3.509 -0.952 7.117 0.151 10.425 1.2 0.351 0.1 0.652 -0.4 0.351 -0.6 -4.681 -4.161 1.7 -13.423 11.477 -7.067 0.351 0.25 0.752 -0.3 0.452 -0.6a3.382 3.382 0 0 1 -0.351 -4.109 5.03 5.03 0 0 1 3.809 -2.356c2.606 -0.4 6.766 0 8.27 2.506a0.38 0.38 0 0 0 0.7 -0.2c-0.1 -3.408 3.609 -5.663 6.716 -5.262 3.659 0.451 6.315 3.508 8.17 6.415 0 0.05 0.05 0.05 0.05 0.1v0.151a0.687 0.687 0 0 0 1.2 0.4 0.322 0.322 0 0 0 0.05 -0.451 0.179 0.179 0 0 0 -0.05 -0.1c0.6 0.051 1.553 0.2 1.7 0.2 2.894 0.526 3.692 2.589 3.007 3.959 -0.15 0.251 0.1 0.652 0.4 0.552a12.393 12.393 0 0 1 14.134 4.31c2.395 3.891 1.323 5.799 -3.502 7.867z" fill="#cff0fa" stroke-width="1"></path>
  <path d="M167.232 84.964a23.714 23.714 0 0 1 -12.432 4.611c-0.5 0.05 -0.5 0.8 0 0.752a24.724 24.724 0 0 0 12.83 -4.711c0.354 -0.301 0.004 -0.951 -0.398 -0.652zm2.005 2.757a24.991 24.991 0 0 1 -3.909 2.055c-0.451 0.2 -0.251 0.9 0.2 0.7a24.483 24.483 0 0 0 4.109 -2.106c0.403 -0.298 0 -0.902 -0.4 -0.649zm-72.974 37.69a3.542 3.542 0 0 1 -1.453 3.659c-0.4 0.25 0 0.9 0.4 0.651a4.35 4.35 0 0 0 1.8 -4.461 0.384 0.384 0 1 0 -0.747 0.151zm3.007 -0.702c-0.1 -0.45 -0.852 -0.25 -0.7 0.2a3.908 3.908 0 0 1 -1.053 3.91c-0.351 0.35 0.2 0.852 0.552 0.5a5.022 5.022 0 0 0 1.201 -4.61zm4.661 -66.258a9.591 9.591 0 0 0 -1.252 7.217c0.1 0.451 0.8 0.251 0.7 -0.2a8.945 8.945 0 0 1 1.153 -6.666c0.302 -0.402 -0.352 -0.753 -0.601 -0.351zm-2.957 0.802a9.223 9.223 0 0 0 -0.752 6.616c0.1 0.451 0.852 0.251 0.7 -0.2a8.493 8.493 0 0 1 0.652 -6.064 0.348 0.348 0 1 0 -0.6 -0.352z" fill="#000000" stroke-width="1"></path>
</svg>