<svg viewBox="0 0 100 100" xmlns="http://www.w3.org/2000/svg" id="Workspace-Imac-1--Streamline-Ux">
  <desc>
    Workspace Imac 1 Streamline Illustration: https://streamlinehq.com
  </desc>
  <path d="M6.6 64.25a1.863 1.863 0 0 0 1.864 1.864h84.672a1.864 1.864 0 1 0 0 -3.727H8.462A1.863 1.863 0 0 0 6.6 64.25Z" fill="none" stroke="#020064" stroke-linecap="round" stroke-linejoin="round" stroke-width="1"></path>
  <path d="m83.66 77.491 -8.364 -11.377 -4.26 0L79.4 77.491" fill="none" stroke="#020064" stroke-linecap="round" stroke-linejoin="round" stroke-width="1"></path>
  <path d="m16.364 77.347 9.938 -11.233 4.26 0 -9.937 11.233" fill="none" stroke="#020064" stroke-linecap="round" stroke-linejoin="round" stroke-width="1"></path>
  <path d="M68.034 55.341h7.163v4.11h-7.163z" fill="none" stroke="#020064" stroke-linecap="round" stroke-linejoin="round" stroke-width="1"></path>
  <path d="M80.834 62.387H62.515a2.921 2.921 0 0 1 2.819 -2.936h12.682a2.921 2.921 0 0 1 2.818 2.936Z" fill="none" stroke="#020064" stroke-linecap="round" stroke-linejoin="round" stroke-width="1"></path>
  <path d="M93.516 26.454a3.523 3.523 0 0 0 -3.523 -3.523H53.356a3.524 3.524 0 0 0 -3.523 3.523V49.47h43.683Z" fill="none" stroke="#020064" stroke-linecap="round" stroke-linejoin="round" stroke-width="1"></path>
  <path d="M90.463 55.341a3.465 3.465 0 0 0 3.053 -3.523V49.47H49.833v2.348c0 1.946 1.578 3.523 3.993 3.523Z" fill="none" stroke="#020064" stroke-linecap="round" stroke-linejoin="round" stroke-width="1"></path>
  <path d="M71.557 51.466a0.939 0.939 0 1 0 0.939 0.939 0.94 0.94 0 0 0 -0.939 -0.939Z" fill="#020064" stroke-width="1"></path>
  <path d="M16.054 62.387H29.9a3.2 3.2 0 0 0 -3.195 -3.2h-7.456a3.2 3.2 0 0 0 -3.195 3.2Z" fill="none" stroke="#020064" stroke-linecap="round" stroke-linejoin="round" stroke-width="1"></path>
  <path d="m23.107 57.061 0 2.13" fill="none" stroke="#020064" stroke-linecap="round" stroke-linejoin="round" stroke-width="1"></path>
  <path d="m15.619 42.6 6.391 13.842a1.066 1.066 0 0 0 0.968 0.619 1.053 1.053 0 0 0 0.445 -0.1 1.065 1.065 0 0 0 0.522 -1.413l-6.2 -13.432" fill="none" stroke="#020064" stroke-linecap="round" stroke-linejoin="round" stroke-width="1"></path>
  <path d="m17.781 41.082 19.735 -17.664 -1.416 -1.587h0L16.349 39.5a1.593 1.593 0 0 1 1.432 1.582Z" fill="none" stroke="#020064" stroke-linecap="round" stroke-linejoin="round" stroke-width="1"></path>
  <path d="M14.586 41.085v0l-9.232 8.26a1.065 1.065 0 0 0 1.421 1.587h0l9.235 -8.266a1.592 1.592 0 0 1 -1.424 -1.581Z" fill="none" stroke="#020064" stroke-linecap="round" stroke-linejoin="round" stroke-width="1"></path>
  <path d="M38.2 27.782a4.322 4.322 0 0 1 -0.249 -4.3l-1.983 -2.217a1.066 1.066 0 0 1 0.084 -1.5l0.794 -0.71a1.065 1.065 0 0 1 1.5 0.084l1.983 2.217a4.323 4.323 0 0 1 4.249 0.728l3.1 2.864a1.065 1.065 0 0 1 -0.013 1.576l-5.4 4.827a1.065 1.065 0 0 1 -1.568 -0.162Z" fill="none" stroke="#020064" stroke-linecap="round" stroke-linejoin="round" stroke-width="1"></path>
  <path d="M14.585 41.085a1.598 1.598 0 1 0 3.196 0 1.598 1.598 0 1 0 -3.196 0Z" fill="none" stroke="#020064" stroke-linecap="round" stroke-linejoin="round" stroke-width="1"></path>
  <path d="m35.975 52.973 3.186 -2.073 0.927 -4.732a0.532 0.532 0 0 0 -0.331 -0.6 0.51 0.51 0 0 0 -0.191 -0.036 0.532 0.532 0 0 0 -0.456 0.257l-3.741 6.185Z" fill="none" stroke="#020064" stroke-linecap="round" stroke-linejoin="round" stroke-width="1"></path>
  <path d="m35.975 52.973 -4.348 -7.187a0.529 0.529 0 0 0 -0.455 -0.257 0.515 0.515 0 0 0 -0.192 0.036 0.533 0.533 0 0 0 -0.331 0.6l0.928 4.732" fill="none" stroke="#020064" stroke-linecap="round" stroke-linejoin="round" stroke-width="1"></path>
  <path d="M40.557 50.451a0.532 0.532 0 0 0 -0.642 -0.047l-7.761 5.06h6.413l2.118 -4.382a0.531 0.531 0 0 0 -0.128 -0.631Z" fill="none" stroke="#020064" stroke-linecap="round" stroke-linejoin="round" stroke-width="1"></path>
  <path d="m35.369 51.971 1.61 -2.662L35.9 44.17a0.534 0.534 0 0 0 -0.512 -0.422h-0.006a0.532 0.532 0 0 0 -0.52 0.4l-1.234 4.937Z" fill="none" stroke="#020064" stroke-linecap="round" stroke-linejoin="round" stroke-width="1"></path>
  <path d="M35.369 53.368 30.823 50.4a0.533 0.533 0 0 0 -0.77 0.678l2.118 4.382" fill="none" stroke="#020064" stroke-linecap="round" stroke-linejoin="round" stroke-width="1"></path>
  <path d="M39.053 60.256H31.6l-0.777 -3.5a1.065 1.065 0 0 1 1.039 -1.3h6.931a1.065 1.065 0 0 1 1.039 1.3Z" fill="none" stroke="#020064" stroke-linecap="round" stroke-linejoin="round" stroke-width="1"></path>
  <path d="M31.598 60.256h7.456v2.13h-7.456z" fill="none" stroke="#020064" stroke-linecap="round" stroke-linejoin="round" stroke-width="1"></path>
</svg>